<svg width="131" height="50" viewBox="0 0 131 50" fill="none" xmlns="http://www.w3.org/2000/svg">
<path d="M60.9102 37.9668V17.1367H57.8486V12.1855H69.1279V17.1367H66.0664V37.9668H60.9102ZM70.5635 37.9668V12.1855H80.876V17.166H75.8076V22.1904H80.6709V27.0391H75.8076V32.9424H81.2129V37.9668H70.5635ZM82.1797 37.9668L84.9482 24.2998L82.751 12.1709H87.79L89.123 21.0332L90.3096 12.1709H95.3633L93.166 24.2998L95.9199 37.9668H90.7051L89.0791 27.8887L87.4092 37.9668H82.1797ZM99.6699 37.9668V17.1367H96.6084V12.1855H107.888V17.1367H104.826V37.9668H99.6699ZM109.089 37.9668V12.1855H114.069V37.9668H109.089ZM122.272 38.2012C120.212 38.2012 118.635 37.5811 117.541 36.3408C116.457 35.0908 115.915 33.2891 115.915 30.9355V18.6895C115.915 16.4824 116.452 14.8076 117.526 13.665C118.61 12.5225 120.192 11.9512 122.272 11.9512C124.353 11.9512 125.93 12.5225 127.004 13.665C128.088 14.8076 128.63 16.4824 128.63 18.6895V30.9355C128.63 33.2891 128.083 35.0908 126.989 36.3408C125.905 37.5811 124.333 38.2012 122.272 38.2012ZM122.316 33.4551C123.098 33.4551 123.488 32.6982 123.488 31.1846V18.6016C123.488 17.332 123.107 16.6973 122.346 16.6973C121.486 16.6973 121.057 17.3467 121.057 18.6455V31.2139C121.057 32.0146 121.154 32.5908 121.35 32.9424C121.545 33.2842 121.867 33.4551 122.316 33.4551Z" fill="white"/>
<g clip-path="url(#clip0_5_1027)">
<path fill-rule="evenodd" clip-rule="evenodd" d="M43.9149 9.48335C44.3742 9.73964 44.8136 10.0315 45.2257 10.3554C45.6365 10.679 46.0274 11.0381 46.392 11.4311L46.3987 11.4375C47.3726 12.4873 48.1001 13.7065 48.5781 15.0088C49.0753 16.3652 49.3072 17.8156 49.2723 19.2668C49.2378 20.7167 48.9381 22.1723 48.3762 23.5403C47.8361 24.8549 47.0506 26.0881 46.0254 27.1575C43.1492 30.1548 40.2561 33.1306 37.3647 36.1054L32.9931 40.6098C32.5905 41.1072 32.1547 41.5756 31.6905 42.0073C31.2318 42.4345 30.7466 42.8239 30.2431 43.1656C29.7448 43.5042 29.2211 43.8007 28.6762 44.0503C28.1459 44.2933 27.5949 44.4925 27.0252 44.6409C26.6089 44.7496 26.1817 44.8309 25.7493 44.8848C25.3155 44.9384 24.8822 44.9647 24.4526 44.9617C24.0174 44.9585 23.5844 44.9271 23.1574 44.8684C22.7291 44.8094 22.3059 44.7214 21.8929 44.6072C21.4798 44.493 21.0706 44.3495 20.6724 44.1816C20.2772 44.013 19.8881 43.8172 19.5144 43.5968C19.1443 43.3788 18.7856 43.1351 18.4422 42.8667C18.1002 42.5987 17.7767 42.3099 17.4727 42.0022C17.0614 41.5827 16.6909 41.1287 16.3598 40.6461C16.02 40.1535 15.7233 39.6286 15.4696 39.0822C15.2118 38.5301 14.9967 37.9472 14.8225 37.3451C14.6459 36.7363 14.5125 36.1105 14.4225 35.4769C13.9947 33.6528 13.4889 31.6777 12.9733 29.6559C11.8966 25.4413 10.7649 21.0182 10.1466 17.2331C9.81668 15.7922 9.77695 14.3325 9.98791 12.9299C10.2075 11.4704 10.6965 10.067 11.4111 8.8067C12.1269 7.54212 13.0711 6.41526 14.1956 5.50715C15.278 4.63304 16.5288 3.95918 17.9062 3.55923L17.9197 3.55687C18.4339 3.40833 18.9511 3.30021 19.4667 3.23423C19.9853 3.16757 20.511 3.14243 21.035 3.15943C21.5576 3.17607 22.0764 3.23271 22.5851 3.33071C23.0855 3.42793 23.5811 3.56337 24.0639 3.73945L41.0206 8.42622C41.525 8.52454 42.0188 8.66103 42.4981 8.83459C42.9837 9.0114 43.4592 9.22957 43.9149 9.48335ZM34.7172 15.4706L21.0286 29.7093C20.8929 29.8498 20.7635 29.9982 20.643 30.1505C20.5233 30.3 20.4125 30.4535 20.3092 30.6106C20.2052 30.7706 20.1079 30.937 20.0168 31.1066C19.9263 31.2794 19.8433 31.4558 19.7691 31.6316C19.6933 31.813 19.6271 31.9956 19.5718 32.1751C19.5157 32.3574 19.4668 32.5448 19.4258 32.7343C19.3854 32.9271 19.3533 33.1206 19.3307 33.3106C19.3083 33.4947 19.2963 33.6877 19.2918 33.8843L19.2938 34.2896C19.3086 34.6589 19.3581 35.0211 19.4369 35.37C19.5183 35.7304 19.632 36.0768 19.7727 36.4033C19.917 36.7369 20.0901 37.0541 20.2869 37.3474C20.4896 37.6454 20.7178 37.923 20.9666 38.1728C21.2153 38.4227 21.489 38.649 21.7843 38.8493C22.0723 39.0446 22.3782 39.2113 22.6978 39.3438C23.0148 39.4755 23.3471 39.578 23.689 39.6451C24.0218 39.7097 24.3688 39.7432 24.7216 39.7403L24.9076 39.7324C24.9677 39.7261 25.0258 39.7224 25.1071 39.7221C25.2702 39.7093 25.4317 39.687 25.5904 39.6593C25.7508 39.6306 25.9197 39.5921 26.0948 39.5461C26.2521 39.5029 26.4118 39.4511 26.5694 39.3912C26.7271 39.3313 26.8853 39.264 27.0403 39.1881C27.1969 39.1112 27.3507 39.0289 27.4961 38.9413C27.6397 38.8547 27.7827 38.7603 27.9219 38.6587C28.0611 38.5572 28.1962 38.45 28.3224 38.3388C28.4521 38.2255 28.5801 38.1026 28.7027 37.9737L28.7204 37.9557C28.7922 37.8919 28.8723 37.7877 28.9478 37.6899C29.0258 37.5882 29.1026 37.4907 29.1827 37.4124C30.1711 36.1152 31.6434 34.5058 33.2932 32.8009C34.9391 31.0995 36.7825 29.2868 38.5006 27.5977L38.5124 27.5858C40.0644 26.0593 41.5151 24.6311 42.6252 23.4816C42.7596 23.3407 42.8851 23.1958 43.0014 23.0484C43.1202 22.8971 43.2335 22.7397 43.3389 22.5802C43.4433 22.4188 43.5402 22.2538 43.6292 22.0867C43.7201 21.9125 43.8027 21.7375 43.8756 21.5613C43.9497 21.3809 44.0171 21.1987 44.0732 21.0164C44.1289 20.8355 44.1771 20.6509 44.2177 20.4628C44.2587 20.2733 44.2895 20.0794 44.3117 19.8907C44.3335 19.7035 44.3472 19.5095 44.3526 19.3147C44.3625 18.9232 44.3345 18.5397 44.2726 18.171C44.2093 17.7913 44.1106 17.4217 43.9796 17.0705C43.8472 16.7143 43.6817 16.3748 43.4858 16.0574C43.2881 15.7365 43.0601 15.4376 42.8089 15.1658C42.555 14.8932 42.2763 14.6488 41.9776 14.4353C41.6798 14.2237 41.3611 14.0413 41.028 13.8959C40.6987 13.7517 40.3514 13.642 39.9926 13.5687C39.6448 13.4969 39.2838 13.4625 38.9139 13.4653C38.7308 13.4679 38.5483 13.4784 38.3702 13.4991C38.1893 13.5192 38.0054 13.5505 37.8248 13.5904C37.649 13.6285 37.47 13.6779 37.2913 13.7366C37.1144 13.7942 36.9404 13.8618 36.7727 13.9372C36.6068 14.0115 36.4395 14.0962 36.2755 14.1893C36.1133 14.2814 35.9539 14.3835 35.8001 14.4916C35.6514 14.5966 35.5004 14.7147 35.3508 14.8437C35.2066 14.9682 35.0666 15.0985 34.9377 15.2348L34.7855 15.3936L34.7812 15.4091L34.7191 15.4741L34.7172 15.4706ZM24.7365 17.8098C24.9566 17.5085 25.1523 17.1821 25.3184 16.8339C25.4779 16.4991 25.613 16.1392 25.7202 15.7565L25.7292 15.724C25.8219 15.3266 25.8827 14.9264 25.909 14.5319C25.9362 14.1346 25.9286 13.7445 25.8883 13.3696C25.8465 12.9792 25.7716 12.6009 25.6653 12.2428C25.5581 11.883 25.4177 11.5352 25.2469 11.2095C25.0771 10.8856 24.8751 10.5802 24.6437 10.2987C24.4164 10.0228 24.1605 9.76793 23.8784 9.54083C23.6004 9.31944 23.2987 9.12192 22.975 8.95787C22.6601 8.7978 22.3204 8.66586 21.9563 8.56523C21.5922 8.4646 21.2375 8.40763 20.8816 8.38537C20.5118 8.36228 20.1455 8.37819 19.7877 8.42997C19.4239 8.48311 19.0652 8.5742 18.72 8.69942C18.3713 8.82674 18.0325 8.99028 17.7119 9.18622C17.3912 9.38217 17.0887 9.61051 16.8098 9.8667C16.5306 10.1243 16.2723 10.409 16.0433 10.717C15.818 11.0215 15.6168 11.3524 15.4448 11.7066C15.2794 12.0474 15.1401 12.4122 15.0346 12.7939C14.9291 13.1756 14.8617 13.5587 14.8286 13.9361C14.7947 14.3269 14.7983 14.716 14.8356 15.0915C14.873 15.4717 14.9475 15.8468 15.0561 16.2116C15.164 16.5793 15.3072 16.9323 15.4804 17.2648C15.6562 17.5979 15.8607 17.9101 16.0939 18.1952C16.3268 18.4818 16.5887 18.7459 16.8759 18.9805C17.1562 19.2086 17.462 19.4118 17.7899 19.5816C18.104 19.7445 18.4403 19.8785 18.7938 19.9762L18.8203 19.9836C19.1904 20.0676 19.5645 20.1162 19.938 20.1312C20.3159 20.1459 20.6878 20.1254 21.045 20.0704C21.4113 20.0134 21.7717 19.9213 22.1191 19.7936C22.4647 19.6669 22.7983 19.5065 23.1125 19.3134C23.4267 19.1202 23.7237 18.8964 23.9957 18.6444C24.2643 18.3945 24.5139 18.1151 24.7373 17.807L24.7365 17.8098Z" fill="#45F882"/>
</g>
<defs>
<clipPath id="clip0_5_1027">
<rect width="42.715" height="40" fill="white" transform="translate(41.1709 49.9341) rotate(-164.549)"/>
</clipPath>
</defs>
</svg>
