<svg width="108" height="40" viewBox="0 0 108 40" fill="none" xmlns="http://www.w3.org/2000/svg">
<g clip-path="url(#clip0_5_1050)">
<path fill-rule="evenodd" clip-rule="evenodd" d="M11.2799 19.1508L14.5485 17.1287C15.2818 16.7613 16.1347 16.5499 17.0459 16.5499V0C16.1347 0 15.2818 0.209936 14.5485 0.57878C10.9548 2.80206 7.36115 5.02533 3.76746 7.24861C0.635926 9.06659 0.217513 11.0712 1.88825 13.0073C2.3504 13.5423 2.99624 14.0278 3.66979 14.4433L11.2799 19.1508Z" fill="#45F882"/>
<path fill-rule="evenodd" clip-rule="evenodd" d="M11.2796 19.1507L14.5482 17.1301C15.2815 16.7613 16.1344 16.5513 17.0455 16.5513V8.2749C16.1344 8.2749 15.2815 8.48484 14.5482 8.85223L4.59082 15.0132L11.2796 19.1507Z" fill="#45F882"/>
<path fill-rule="evenodd" clip-rule="evenodd" d="M2.97117 16.2394C1.44768 15.2961 0 13.9928 0 12.4255V28.9769C0 30.0718 0.543791 31.0733 1.44768 31.8475L14.5482 39.9519C15.0337 40.1297 15.404 39.7988 15.404 39.1398C15.404 38.4809 15.0308 37.6776 14.5482 37.2796L11.5333 35.4149C11.1018 35.1 10.7607 34.4032 10.7607 33.8171C10.7607 33.2675 11.0712 32.9905 11.4765 33.1392L14.5482 35.0403V35.0315C14.9535 35.1802 15.2641 34.9032 15.2641 34.3536C15.2641 33.804 14.9521 33.1319 14.5482 32.7995L6.77771 27.9914C6.34618 27.6765 6.00503 26.9796 6.00503 26.3935C6.00503 25.8439 6.31556 25.5669 6.72085 25.7156L14.5497 30.5587V30.55C14.955 30.6987 15.2655 30.4217 15.2655 29.872C15.2655 29.3224 14.9535 28.6503 14.5497 28.3179L11.5348 26.4533C11.1033 26.1384 10.7621 25.4415 10.7621 24.8555C10.7621 24.3058 11.0726 24.0288 11.4779 24.1776L14.5497 26.0786C15.0352 26.2565 15.4055 25.9256 15.4055 25.2666C15.4055 24.6076 15.0323 23.8043 14.5497 23.4063L2.97117 16.2394Z" fill="#45F882"/>
<path fill-rule="evenodd" clip-rule="evenodd" d="M2.97117 16.2394C1.44768 15.2961 0 13.9928 0 12.4255V22.6745C0.190983 22.8028 0.395087 22.9296 0.61377 23.0564L6.00503 26.3906C6.00503 25.841 6.31556 25.564 6.72085 25.7127L14.5497 30.5558V30.5456C14.955 30.6943 15.2641 30.4188 15.2641 29.8677C15.2641 29.3166 14.9535 28.646 14.5497 28.3136L11.5333 26.4489C11.1033 26.134 10.7607 25.4357 10.7607 24.8496C10.7607 24.3 11.0712 24.023 11.4765 24.1717L14.5497 26.0728C15.0337 26.2507 15.4055 25.9197 15.4055 25.2608C15.4055 24.6018 15.0308 23.7985 14.5497 23.4005L2.97117 16.2394Z" fill="#45F882"/>
<path fill-rule="evenodd" clip-rule="evenodd" d="M24.4739 20.8477L21.2054 22.8697C20.472 23.2371 19.6192 23.4485 18.708 23.4485V39.9999C19.6192 39.9999 20.472 39.7885 21.2054 39.4211C24.7991 37.1978 28.3927 34.9746 31.9864 32.7513C35.118 30.9318 35.5349 28.9273 33.8642 26.9926C33.402 26.4576 32.7562 25.9721 32.0826 25.5566L24.4725 20.8491L24.4739 20.8477Z" fill="#45F882"/>
<path fill-rule="evenodd" clip-rule="evenodd" d="M24.4739 20.8477L21.2054 22.8683C20.472 23.2371 19.6192 23.4471 18.708 23.4471V31.7235C19.6192 31.7235 20.472 31.5135 21.2054 31.1462L31.1627 24.9866L24.4739 20.8491V20.8477Z" fill="#45F882"/>
<path fill-rule="evenodd" clip-rule="evenodd" d="M32.782 23.7606C34.3054 24.7039 35.7531 26.0072 35.7531 27.5745V11.0231C35.7531 9.92822 35.2093 8.92665 34.3054 8.15252L21.2049 0.048133C20.7194 -0.129729 20.3491 0.201211 20.3491 0.860175C20.3491 1.51914 20.7223 2.32243 21.2049 2.72044L24.2198 4.58507C24.6513 4.89998 24.9925 5.59684 24.9925 6.18291C24.9925 6.73254 24.6819 7.00954 24.2767 6.86083L21.2049 4.95975V4.9685C20.7996 4.81979 20.4891 5.09679 20.4891 5.64641C20.4891 6.19604 20.8011 6.86812 21.2049 7.20052L28.9754 12.0086C29.407 12.3235 29.7481 13.0204 29.7481 13.6065C29.7481 14.1561 29.4376 14.4331 29.0323 14.2844L21.2034 9.44129V9.45004C20.7981 9.30133 20.4876 9.57833 20.4876 10.128C20.4876 10.6776 20.7996 11.3497 21.2034 11.6821L24.2183 13.5467C24.6499 13.8616 24.991 14.5585 24.991 15.1445C24.991 15.6942 24.6805 15.9712 24.2752 15.8225L21.2034 13.9214C20.718 13.7435 20.3477 14.0744 20.3477 14.7334C20.3477 15.3924 20.7209 16.1957 21.2034 16.5937L32.779 23.7548L32.782 23.7606Z" fill="#45F882"/>
<path fill-rule="evenodd" clip-rule="evenodd" d="M32.782 23.7607C34.3054 24.704 35.7531 26.0073 35.7531 27.5745V17.3256C35.5621 17.1973 35.358 17.0705 35.1408 16.9436L29.7496 13.6095C29.7496 14.1591 29.439 14.4361 29.0337 14.2874L21.2049 9.44428V9.45448C20.7996 9.30578 20.4905 9.58132 20.4905 10.1324C20.4905 10.6835 20.8011 11.3541 21.2049 11.6865L24.2213 13.5511C24.6513 13.866 24.9939 14.5644 24.9939 15.1504C24.9939 15.7001 24.6834 15.9771 24.2781 15.8284L21.2049 13.9273C20.7209 13.7494 20.3477 14.0804 20.3477 14.7393C20.3477 15.3983 20.7223 16.2016 21.2049 16.5996L32.782 23.7607Z" fill="#45F882"/>
</g>
<path d="M46.8955 33V7.21875H53.707C55.1328 7.21875 56.2607 7.53613 57.0908 8.1709C57.9307 8.80566 58.5312 9.70898 58.8926 10.8809C59.2539 12.0527 59.4346 13.4492 59.4346 15.0703C59.4346 16.6328 59.2832 17.9951 58.9805 19.1572C58.6777 20.3096 58.1357 21.2031 57.3545 21.8379C56.583 22.4727 55.4844 22.79 54.0586 22.79H51.9639V33H46.8955ZM51.9639 18.1611H52.2568C53.2139 18.1611 53.7998 17.8926 54.0146 17.3555C54.2295 16.8184 54.3369 16.0273 54.3369 14.9824C54.3369 14.0059 54.2295 13.2539 54.0146 12.7266C53.8096 12.1895 53.3164 11.9209 52.5352 11.9209H51.9639V18.1611ZM67.0371 33.2344C64.8887 33.2344 63.3066 32.6338 62.291 31.4326C61.2754 30.2217 60.7676 28.4443 60.7676 26.1006V7.21875H65.7773V25.8955C65.7773 26.3252 65.8018 26.7402 65.8506 27.1406C65.8994 27.5312 66.0117 27.8535 66.1875 28.1074C66.3633 28.3613 66.6465 28.4883 67.0371 28.4883C67.4375 28.4883 67.7256 28.3662 67.9014 28.1221C68.0771 27.8682 68.1846 27.541 68.2236 27.1406C68.2725 26.7402 68.2969 26.3252 68.2969 25.8955V7.21875H73.3066V26.1006C73.3066 28.4443 72.7988 30.2217 71.7832 31.4326C70.7676 32.6338 69.1855 33.2344 67.0371 33.2344ZM75.2842 33V7.21875H83.1943C84.5127 7.21875 85.5088 7.52148 86.1826 8.12695C86.8564 8.72266 87.3057 9.5625 87.5303 10.6465C87.7646 11.7207 87.8818 12.9854 87.8818 14.4404C87.8818 15.8467 87.7012 16.9697 87.3398 17.8096C86.9883 18.6494 86.3193 19.2305 85.333 19.5527C86.1436 19.7188 86.71 20.124 87.0322 20.7686C87.3643 21.4033 87.5303 22.2285 87.5303 23.2441V33H82.4473V22.9072C82.4473 22.1553 82.291 21.6914 81.9785 21.5156C81.6758 21.3301 81.1826 21.2373 80.499 21.2373V33H75.2842ZM80.5283 16.7695H81.7734C82.4863 16.7695 82.8428 15.9932 82.8428 14.4404C82.8428 13.4346 82.7646 12.7754 82.6084 12.4629C82.4521 12.1504 82.1592 11.9941 81.7295 11.9941H80.5283V16.7695ZM89.5811 33V7.21875H99.8936V12.1992H94.8252V17.2236H99.6885V22.0723H94.8252V27.9756H100.23V33H89.5811ZM101.71 33V7.21875H106.69V33H101.71Z" fill="white"/>
<defs>
<clipPath id="clip0_5_1050">
<rect width="35.7532" height="40" fill="white"/>
</clipPath>
</defs>
</svg>
