<svg width="137" height="40" viewBox="0 0 137 40" fill="none" xmlns="http://www.w3.org/2000/svg">
<path d="M53.4395 33L55.9297 7.21875H64.6748L67.1211 33H62.2432L61.877 28.8398H58.7715L58.4492 33H53.4395ZM59.1377 24.7236H61.4814L60.3535 11.6133H60.1191L59.1377 24.7236ZM68.4688 33V7.21875H73.4492V33H68.4688ZM75.1631 32.9854V28.6201H80.4072V32.9854H75.1631ZM88.3613 33.2344C86.4961 33.2344 84.9922 32.6533 83.8496 31.4912C82.7168 30.3291 82.1504 28.7031 82.1504 26.6133V14.7188C82.1504 12.2188 82.6436 10.3047 83.6299 8.97656C84.626 7.64844 86.2422 6.98438 88.4785 6.98438C89.6992 6.98438 90.7832 7.20898 91.7305 7.6582C92.6875 8.10742 93.4395 8.78125 93.9863 9.67969C94.5332 10.5684 94.8066 11.6914 94.8066 13.0488V17.502H89.6797V13.6934C89.6797 12.9219 89.582 12.4043 89.3867 12.1406C89.1914 11.8672 88.8887 11.7305 88.4785 11.7305C88 11.7305 87.6777 11.9062 87.5117 12.2578C87.3457 12.5996 87.2627 13.0586 87.2627 13.6348V26.54C87.2627 27.2529 87.3652 27.7559 87.5703 28.0488C87.7852 28.3418 88.0879 28.4883 88.4785 28.4883C88.918 28.4883 89.2256 28.3076 89.4014 27.9463C89.5869 27.585 89.6797 27.1162 89.6797 26.54V21.8965H94.8652V26.7744C94.8652 29.04 94.2939 30.6855 93.1514 31.7109C92.0088 32.7266 90.4121 33.2344 88.3613 33.2344ZM102.746 33.2344C100.686 33.2344 99.1084 32.6143 98.0146 31.374C96.9307 30.124 96.3887 28.3223 96.3887 25.9688V13.7227C96.3887 11.5156 96.9258 9.84082 98 8.69824C99.084 7.55566 100.666 6.98438 102.746 6.98438C104.826 6.98438 106.403 7.55566 107.478 8.69824C108.562 9.84082 109.104 11.5156 109.104 13.7227V25.9688C109.104 28.3223 108.557 30.124 107.463 31.374C106.379 32.6143 104.807 33.2344 102.746 33.2344ZM102.79 28.4883C103.571 28.4883 103.962 27.7314 103.962 26.2178V13.6348C103.962 12.3652 103.581 11.7305 102.819 11.7305C101.96 11.7305 101.53 12.3799 101.53 13.6787V26.2471C101.53 27.0479 101.628 27.624 101.823 27.9756C102.019 28.3174 102.341 28.4883 102.79 28.4883ZM111.184 33V7.21875H119.094C120.412 7.21875 121.408 7.52148 122.082 8.12695C122.756 8.72266 123.205 9.5625 123.43 10.6465C123.664 11.7207 123.781 12.9854 123.781 14.4404C123.781 15.8467 123.601 16.9697 123.239 17.8096C122.888 18.6494 122.219 19.2305 121.232 19.5527C122.043 19.7188 122.609 20.124 122.932 20.7686C123.264 21.4033 123.43 22.2285 123.43 23.2441V33H118.347V22.9072C118.347 22.1553 118.19 21.6914 117.878 21.5156C117.575 21.3301 117.082 21.2373 116.398 21.2373V33H111.184ZM116.428 16.7695H117.673C118.386 16.7695 118.742 15.9932 118.742 14.4404C118.742 13.4346 118.664 12.7754 118.508 12.4629C118.352 12.1504 118.059 11.9941 117.629 11.9941H116.428V16.7695ZM125.48 33V7.21875H135.793V12.1992H130.725V17.2236H135.588V22.0723H130.725V27.9756H136.13V33H125.48Z" fill="white"/>
<g clip-path="url(#clip0_5_1062)">
<path fill-rule="evenodd" clip-rule="evenodd" d="M8.68365 39.7199C8.13802 39.5952 7.60265 39.4309 7.08635 39.2285C6.57152 39.0261 6.06696 38.7841 5.57999 38.5024L5.57119 38.498C4.27017 37.7456 3.17451 36.7643 2.31205 35.6364C1.41439 34.4615 0.763152 33.1253 0.386195 31.7172C0.00923794 30.3106 -0.0963688 28.8277 0.0928432 27.3595C0.274721 25.9484 0.73235 24.5506 1.48333 23.2467C3.59106 19.5915 5.72227 15.9525 7.852 12.3149L11.0701 6.8087C11.3429 6.222 11.6582 5.65436 12.0132 5.11459C12.3638 4.58069 12.7524 4.07613 13.1734 3.61263C13.59 3.15353 14.0447 2.72817 14.5346 2.34242C15.0113 1.96693 15.5217 1.62811 16.0659 1.33329C16.4633 1.11767 16.8799 0.925527 17.3097 0.758317C17.7409 0.591106 18.1795 0.450297 18.6224 0.338823C19.0712 0.225883 19.5259 0.140811 19.9821 0.0836072C20.4397 0.0264036 20.9003 -0.00146484 21.3579 -0.00146484C21.8156 -0.00146484 22.2776 0.0278703 22.7352 0.0836072C23.1899 0.140811 23.6461 0.225883 24.0934 0.338823C24.5364 0.450297 24.975 0.589639 25.4047 0.75685C25.833 0.92406 26.2481 1.11621 26.6485 1.33182C27.1912 1.62664 27.7017 1.96546 28.1798 2.34242C28.6697 2.72671 29.1244 3.15353 29.541 3.61263C29.9634 4.07613 30.3506 4.58069 30.7012 5.11459C31.0561 5.65436 31.3715 6.222 31.6443 6.8087C32.6036 8.45294 33.686 10.2218 34.792 12.0333C37.0992 15.8087 39.5223 19.7705 41.2355 23.254C41.985 24.555 42.4411 25.9514 42.623 27.3595C42.8122 28.8248 42.7081 30.3077 42.3311 31.7128C41.9542 33.1224 41.3029 34.46 40.4038 35.6349C39.5384 36.7658 38.4427 37.7485 37.1388 38.501L37.1256 38.5068C36.6386 38.787 36.137 39.029 35.6251 39.23C35.1103 39.4324 34.5764 39.5966 34.0322 39.7199C33.4895 39.8431 32.9395 39.9267 32.388 39.9677C31.8453 40.0073 31.2967 40.0088 30.7496 39.9677H11.9633C11.4162 40.0073 10.8691 40.0073 10.3264 39.9677C9.77639 39.9267 9.22489 39.8431 8.68365 39.7199ZM16.4472 31.4987L26.4857 14.1278C26.5855 13.9562 26.6764 13.7787 26.7571 13.5998C26.8377 13.4238 26.9081 13.2463 26.9697 13.0674C27.0313 12.8855 27.0842 12.6992 27.1296 12.5115C27.1736 12.3208 27.2088 12.1286 27.2352 11.9394C27.2616 11.7443 27.2778 11.5507 27.2836 11.363C27.2895 11.1723 27.2866 10.9787 27.2748 10.7851C27.2616 10.5885 27.2396 10.3935 27.2088 10.2042C27.1795 10.0209 27.137 9.83169 27.0856 9.64101L26.9683 9.25085C26.848 8.89883 26.694 8.56294 26.5136 8.24759C26.3273 7.92197 26.1117 7.61835 25.8741 7.34113C25.6306 7.05805 25.3622 6.79843 25.0762 6.56815C24.7828 6.33494 24.4689 6.12812 24.1418 5.95358C23.8147 5.77903 23.4686 5.63383 23.1078 5.51942C22.7557 5.40794 22.3935 5.32874 22.0268 5.2862C21.663 5.24367 21.2919 5.2334 20.9208 5.2598C20.56 5.2862 20.1933 5.34634 19.831 5.44315L19.6418 5.50035C19.5817 5.52235 19.523 5.54142 19.4394 5.56342C19.2751 5.61916 19.1152 5.6837 18.9598 5.75263C18.8028 5.82304 18.64 5.90518 18.4728 5.99612C18.3232 6.07972 18.1736 6.17213 18.0284 6.27187C17.8832 6.3716 17.7394 6.47868 17.6016 6.59309C17.4622 6.70896 17.3273 6.82923 17.2026 6.95244C17.0794 7.07418 16.9591 7.20326 16.8447 7.3382C16.7303 7.47314 16.6218 7.61248 16.5235 7.75329C16.4223 7.89704 16.3255 8.04958 16.236 8.20652L16.2228 8.22852C16.1671 8.30919 16.1143 8.43094 16.0644 8.54534C16.0131 8.66415 15.9617 8.77856 15.9016 8.87536C15.2533 10.3891 14.1957 12.3325 12.9827 14.4153C11.7726 16.4937 10.391 18.732 9.10315 20.8177L9.09435 20.8324C7.93121 22.7172 6.84434 24.4802 6.02882 25.8839C5.93055 26.0555 5.84254 26.2286 5.7648 26.4017C5.6856 26.5792 5.61373 26.761 5.55066 26.9429C5.48905 27.1263 5.43625 27.3111 5.39225 27.4959C5.34824 27.688 5.31304 27.8787 5.28811 28.0679C5.26317 28.2615 5.24557 28.4551 5.2397 28.6458C5.23384 28.835 5.23677 29.0257 5.2485 29.2179C5.26024 29.4115 5.28371 29.6065 5.31451 29.7943C5.34531 29.9806 5.38638 30.1712 5.43625 30.3605C5.53745 30.7403 5.67533 31.1026 5.84401 31.4415C6.01709 31.7905 6.2239 32.1206 6.45858 32.4242C6.69619 32.7322 6.96314 33.0153 7.25503 33.269C7.54985 33.5257 7.8696 33.7531 8.20549 33.9482C8.54431 34.1432 8.90073 34.3046 9.26889 34.4307C9.63558 34.5554 10.0155 34.6463 10.3998 34.6977C10.7797 34.749 11.1683 34.7622 11.5585 34.7373C11.9369 34.7138 12.3183 34.6507 12.6982 34.5495C12.8859 34.4982 13.0707 34.4395 13.2482 34.372C13.4286 34.3046 13.609 34.2254 13.7836 34.1388C13.9537 34.0552 14.1239 33.9599 14.2911 33.8557C14.4568 33.7531 14.6167 33.6416 14.7678 33.5243C14.9174 33.4084 15.0655 33.2822 15.2078 33.1488C15.3486 33.0168 15.4836 32.8759 15.6112 32.7307C15.7344 32.5899 15.8561 32.4359 15.9734 32.2716C16.0864 32.1132 16.1935 31.9504 16.2873 31.7847L16.3988 31.5911V31.5749L16.4443 31.4957L16.4472 31.4987ZM26.0545 26.585C25.9137 26.9341 25.8051 27.3008 25.7333 27.6807C25.6643 28.0459 25.6277 28.4287 25.6262 28.8262V28.86C25.6438 29.2677 25.6951 29.6696 25.7802 30.0568C25.8653 30.447 25.9841 30.821 26.1322 31.1716C26.2862 31.5368 26.471 31.8815 26.6823 32.1983C26.8949 32.5166 27.1384 32.8143 27.4068 33.0828C27.6738 33.3497 27.9686 33.5903 28.2869 33.8C28.5993 34.0054 28.9352 34.1828 29.2902 34.3266C29.6392 34.4659 30.0059 34.5759 30.3858 34.6478C30.7555 34.7182 31.1427 34.7549 31.546 34.7549C31.9494 34.7549 32.3308 34.7153 32.7033 34.6419C33.0905 34.5657 33.4631 34.4527 33.8166 34.3075C34.1759 34.1594 34.5192 33.976 34.8389 33.7633C35.1616 33.5477 35.4637 33.2998 35.738 33.0256C36.0123 32.7513 36.2587 32.4506 36.4729 32.1294C36.687 31.8067 36.8718 31.4635 37.02 31.1056C37.1652 30.7521 37.2781 30.3795 37.3544 29.9923C37.4277 29.6197 37.4673 29.2311 37.4673 28.835C37.4673 28.439 37.4277 28.0518 37.3544 27.6792C37.2781 27.2935 37.1637 26.9194 37.0185 26.5674C36.8718 26.211 36.6885 25.8692 36.4729 25.5466C36.2573 25.2209 36.0094 24.9188 35.7366 24.6445C35.4608 24.3702 35.1616 24.1238 34.8404 23.9111C34.5192 23.697 34.1745 23.5122 33.8122 23.3625C33.4587 23.2173 33.0861 23.1029 32.7004 23.0267C32.3308 22.9533 31.9465 22.9137 31.5548 22.9137H31.5255C31.1207 22.9313 30.7217 22.9841 30.333 23.0692C29.9399 23.1557 29.563 23.2745 29.211 23.4227C28.8501 23.5752 28.5054 23.76 28.1842 23.9757C27.8645 24.1898 27.5667 24.4333 27.2983 24.7032C27.0299 24.973 26.7879 25.2679 26.5796 25.5832C26.3742 25.8956 26.1968 26.2315 26.0545 26.588V26.585Z" fill="#45F882"/>
</g>
<defs>
<clipPath id="clip0_5_1062">
<rect width="42.715" height="40" fill="white"/>
</clipPath>
</defs>
</svg>
