<svg width="133" height="40" viewBox="0 0 133 40" fill="none" xmlns="http://www.w3.org/2000/svg">
<g clip-path="url(#clip0_5_1022)">
<path fill-rule="evenodd" clip-rule="evenodd" d="M3.37956 5.68408L12.227 20.0294L3.95182 33.4449H29.0108L33.2415 26.5844L30.2191 21.6841L25.9346 28.6318H12.9655L17.02 22.0566C17.8054 20.7829 17.8406 19.3296 17.0502 18.0491L8.8891 4.81477C15.9107 4.82484 22.9323 4.82316 29.9539 4.8198C33.75 10.9872 38.2845 18.3428 42.3458 24.928L44.1163 22.0583C44.9017 20.7829 44.9017 19.2742 44.1163 17.9987L34.1494 1.83596C33.4228 0.657856 32.243 0 30.8585 0H9.0435C7.65898 0 6.4792 0.657856 5.75254 1.83596L3.37956 5.6824V5.68408ZM3.95182 35.1886L5.78778 38.164C6.51444 39.3421 7.69422 40 9.07874 40H30.8937C32.2782 40 33.458 39.3421 34.1847 38.164L41.3271 26.5828C37.2088 19.9069 33.0888 13.2326 28.9772 6.55171H12.0022L14.9743 11.3698H25.9011L30.5832 18.9771C32.1457 21.5129 33.7047 24.052 35.2805 26.5777C33.5923 29.4995 31.7379 32.3121 29.9774 35.1869H3.95182V35.1886ZM2.35921 7.33879L0.588703 10.2102C-0.198375 11.4856 -0.196697 12.9927 0.588703 14.2698L4.13978 20.0294L0.623945 25.7319C-0.164811 27.0107 -0.159776 28.5244 0.623945 29.7915L2.39445 32.6612L10.1847 20.0294L2.35921 7.33879Z" fill="#45F882"/>
</g>
<path d="M59.2627 33V24.5186L55.1465 7.21875H60.2588L61.6943 15.9492L63.1299 7.21875H68.2275L64.126 24.5186V33H59.2627ZM69.5312 33V7.21875H79.8438V12.1992H74.7754V17.2236H79.6387V22.0723H74.7754V27.9756H80.1807V33H69.5312ZM81.8945 33V7.21875H87.0508V28.6055H92.3535V33H81.8945ZM93.8184 33V7.21875H98.9746V28.6055H104.277V33H93.8184ZM105.742 33V7.21875H112.554C113.979 7.21875 115.107 7.53613 115.938 8.1709C116.777 8.80566 117.378 9.70898 117.739 10.8809C118.101 12.0527 118.281 13.4492 118.281 15.0703C118.281 16.6328 118.13 17.9951 117.827 19.1572C117.524 20.3096 116.982 21.2031 116.201 21.8379C115.43 22.4727 114.331 22.79 112.905 22.79H110.811V33H105.742ZM110.811 18.1611H111.104C112.061 18.1611 112.646 17.8926 112.861 17.3555C113.076 16.8184 113.184 16.0273 113.184 14.9824C113.184 14.0059 113.076 13.2539 112.861 12.7266C112.656 12.1895 112.163 11.9209 111.382 11.9209H110.811V18.1611ZM125.884 33.2344C123.735 33.2344 122.153 32.6338 121.138 31.4326C120.122 30.2217 119.614 28.4443 119.614 26.1006V7.21875H124.624V25.8955C124.624 26.3252 124.648 26.7402 124.697 27.1406C124.746 27.5312 124.858 27.8535 125.034 28.1074C125.21 28.3613 125.493 28.4883 125.884 28.4883C126.284 28.4883 126.572 28.3662 126.748 28.1221C126.924 27.8682 127.031 27.541 127.07 27.1406C127.119 26.7402 127.144 26.3252 127.144 25.8955V7.21875H132.153V26.1006C132.153 28.4443 131.646 30.2217 130.63 31.4326C129.614 32.6338 128.032 33.2344 125.884 33.2344Z" fill="white"/>
<defs>
<clipPath id="clip0_5_1022">
<rect width="44.7057" height="40" fill="white"/>
</clipPath>
</defs>
</svg>
