<svg width="131" height="40" viewBox="0 0 131 40" fill="none" xmlns="http://www.w3.org/2000/svg">
<g clip-path="url(#clip0_5_1037)">
<path fill-rule="evenodd" clip-rule="evenodd" d="M25.3642 16.2662L17.1908 8.09279L9.0174 16.2662C6.92634 18.3589 5.63155 21.2479 5.63155 24.4396C5.63155 27.6313 6.92469 30.5219 9.0174 32.613C11.1101 34.7041 13.9991 35.9988 17.1908 35.9988C20.3825 35.9988 23.2731 34.7057 25.3642 32.613C27.4569 30.5203 28.75 27.6313 28.75 24.4396C28.75 21.2479 27.4569 18.3573 25.3642 16.2662ZM22.8108 40H3.63591C1.63534 40 0 38.363 0 36.3641V17.1892C0 17.1579 0 17.1283 0 17.097V17.0937C0 17.0641 0.00164521 17.0345 0.00329042 17.0032H0.00493563C0.0493563 16.1329 0.401431 15.2774 1.06116 14.6177L14.6193 1.06116C16.0342 -0.35372 18.3474 -0.35372 19.7623 1.06116L33.3204 14.6193C33.9802 15.2791 34.3322 16.1346 34.3767 17.0032C34.3767 17.0345 34.38 17.0641 34.38 17.0937V17.097C34.38 17.1283 34.38 17.1579 34.38 17.1892V36.3641C34.38 38.3647 32.743 40 30.744 40H22.8108Z" fill="#34C759"/>
<path d="M11.2649 22.0096C11.668 23.2748 12.4725 24.3672 13.532 25.1405C14.552 25.8858 15.8172 26.3267 17.1893 26.3267C18.5614 26.3267 19.8266 25.8858 20.8466 25.1405C21.9061 24.3672 22.7106 23.2732 23.1137 22.0096L26.6624 23.1333C26.0126 25.1717 24.7309 26.9222 23.0512 28.1479C21.4027 29.3522 19.3741 30.0646 17.1877 30.0646C15.0012 30.0646 12.9743 29.3539 11.3241 28.1479C9.64437 26.9206 8.36275 25.1701 7.71289 23.1333L11.2616 22.0096H11.2649Z" fill="#34C759"/>
</g>
<path d="M125.684 33V7.21875H130.664V33H125.684Z" fill="white"/>
<path d="M112.939 33V28.3125L118.843 11.9648H113.511V7.21875H124.277V11.7305L118.271 28.2539H124.028V33H112.939Z" fill="white"/>
<path d="M98.6426 33V7.21875H103.77V16.4326H106.201V7.21875H111.328V33H106.201V21.3105H103.77V33H98.6426Z" fill="white"/>
<path d="M90.9082 33.2344C88.5547 33.2344 86.8555 32.6484 85.8105 31.4766C84.7754 30.3047 84.2578 28.4395 84.2578 25.8809V23.3613H89.3555V26.584C89.3555 27.1797 89.4434 27.6484 89.6191 27.9902C89.8047 28.3223 90.1221 28.4883 90.5713 28.4883C91.04 28.4883 91.3623 28.3516 91.5381 28.0781C91.7236 27.8047 91.8164 27.3555 91.8164 26.7305C91.8164 25.9395 91.7383 25.2803 91.582 24.7529C91.4258 24.2158 91.1523 23.708 90.7617 23.2295C90.3809 22.7412 89.8486 22.1748 89.165 21.5303L86.8506 19.333C85.1221 17.7021 84.2578 15.8369 84.2578 13.7373C84.2578 11.54 84.7656 9.86523 85.7812 8.71289C86.8066 7.56055 88.2861 6.98438 90.2197 6.98438C92.583 6.98438 94.2578 7.61426 95.2441 8.87402C96.2402 10.1338 96.7383 12.0479 96.7383 14.6162H91.4941V12.8438C91.4941 12.4922 91.3916 12.2188 91.1865 12.0234C90.9912 11.8281 90.7227 11.7305 90.3809 11.7305C89.9707 11.7305 89.668 11.8477 89.4727 12.082C89.2871 12.3066 89.1943 12.5996 89.1943 12.9609C89.1943 13.3223 89.292 13.7129 89.4873 14.1328C89.6826 14.5527 90.0684 15.0361 90.6445 15.583L93.6182 18.4395C94.2139 19.0059 94.7607 19.6064 95.2588 20.2412C95.7568 20.8662 96.1572 21.5986 96.46 22.4385C96.7627 23.2686 96.9141 24.2842 96.9141 25.4854C96.9141 27.9072 96.4648 29.8066 95.5664 31.1836C94.6777 32.5508 93.125 33.2344 90.9082 33.2344Z" fill="white"/>
<path d="M72.4219 33V7.21875H82.7344V12.1992H77.666V17.2236H82.5293V22.0723H77.666V27.9756H83.0713V33H72.4219Z" fill="white"/>
<path d="M58.125 33V7.21875H66.0352C67.3535 7.21875 68.3496 7.52148 69.0234 8.12695C69.6973 8.72266 70.1465 9.5625 70.3711 10.6465C70.6055 11.7207 70.7227 12.9854 70.7227 14.4404C70.7227 15.8467 70.542 16.9697 70.1807 17.8096C69.8291 18.6494 69.1602 19.2305 68.1738 19.5527C68.9844 19.7188 69.5508 20.124 69.873 20.7686C70.2051 21.4033 70.3711 22.2285 70.3711 23.2441V33H65.2881V22.9072C65.2881 22.1553 65.1318 21.6914 64.8193 21.5156C64.5166 21.3301 64.0234 21.2373 63.3398 21.2373V33H58.125ZM63.3691 16.7695H64.6143C65.3271 16.7695 65.6836 15.9932 65.6836 14.4404C65.6836 13.4346 65.6055 12.7754 65.4492 12.4629C65.293 12.1504 65 11.9941 64.5703 11.9941H63.3691V16.7695Z" fill="white"/>
<path d="M46.1426 33V7.21875H56.4551V12.2432H51.3281V16.3447H56.1914V21.3105H51.3281V33H46.1426Z" fill="white"/>
<defs>
<clipPath id="clip0_5_1037">
<rect width="34.38" height="40" fill="white"/>
</clipPath>
</defs>
</svg>
