<svg width="120" height="40" viewBox="0 0 120 40" fill="none" xmlns="http://www.w3.org/2000/svg">
<g clip-path="url(#clip0_5_1013)">
<path fill-rule="evenodd" clip-rule="evenodd" d="M36.0288 12.797C38.0962 5.92672 31.0861 0.348022 21.0246 0.0125457C9.50377 -0.373252 0 8.54623 0 20.0056C0 31.4649 9.47442 40 19.9944 40C31.0372 40 39.9888 31.0483 39.9888 20.0056C39.9888 19.0648 39.9217 18.1395 39.7973 17.2337C34.9371 30.3005 25.0098 35.506 15.9142 33.96C11.2944 32.1792 9.14453 27.4657 11.9863 21.9276C13.9027 12.045 23.6441 7.15121 31.0148 9.39052C32.7104 18.1045 22.6936 25.0754 17.7789 26.7403C22.6083 24.2591 33.9558 19.698 36.0316 12.797" fill="#45F882"/>
<path fill-rule="evenodd" clip-rule="evenodd" d="M30.7449 19.9274C33.6678 17.4938 35.3577 15.0574 36.0385 12.7664C36.1517 10.2894 34.3625 9.06356 31.0133 9.39065C31.7905 17.0549 21.8268 23.8679 17.7773 26.7404C21.1992 26.198 26.5626 23.4094 30.7449 19.9274Z" fill="#45F882"/>
<path fill-rule="evenodd" clip-rule="evenodd" d="M15.9129 33.9599C13.264 31.8506 11.6216 27.9549 11.985 21.9275C9.68282 25.5283 8.11307 29.5386 7.43652 33.4497C10.0854 33.9655 12.9635 34.1794 15.9129 33.9599Z" fill="#45F882"/>
<path fill-rule="evenodd" clip-rule="evenodd" d="M39.7962 17.2336C33.9506 28.8761 24.6229 33.31 15.9131 33.9599C23.3215 39.8587 38.5927 31.7724 39.7962 17.2336Z" fill="#45F882"/>
<path fill-rule="evenodd" clip-rule="evenodd" d="M11.9834 21.9276C16.2006 15.3312 22.8738 10.109 31.0119 9.39052C29.9915 0.949084 13.8928 2.69915 12.0826 20.6933C12.0407 21.114 12.0072 21.525 11.9834 21.9262" fill="#45F882"/>
</g>
<path d="M50.4395 33L52.9297 7.21875H61.6748L64.1211 33H59.2432L58.877 28.8398H55.7715L55.4492 33H50.4395ZM56.1377 24.7236H58.4814L57.3535 11.6133H57.1191L56.1377 24.7236ZM71.8262 33.2344C69.4727 33.2344 67.7734 32.6484 66.7285 31.4766C65.6934 30.3047 65.1758 28.4395 65.1758 25.8809V23.3613H70.2734V26.584C70.2734 27.1797 70.3613 27.6484 70.5371 27.9902C70.7227 28.3223 71.04 28.4883 71.4893 28.4883C71.958 28.4883 72.2803 28.3516 72.4561 28.0781C72.6416 27.8047 72.7344 27.3555 72.7344 26.7305C72.7344 25.9395 72.6562 25.2803 72.5 24.7529C72.3438 24.2158 72.0703 23.708 71.6797 23.2295C71.2988 22.7412 70.7666 22.1748 70.083 21.5303L67.7686 19.333C66.04 17.7021 65.1758 15.8369 65.1758 13.7373C65.1758 11.54 65.6836 9.86523 66.6992 8.71289C67.7246 7.56055 69.2041 6.98438 71.1377 6.98438C73.501 6.98438 75.1758 7.61426 76.1621 8.87402C77.1582 10.1338 77.6562 12.0479 77.6562 14.6162H72.4121V12.8438C72.4121 12.4922 72.3096 12.2188 72.1045 12.0234C71.9092 11.8281 71.6406 11.7305 71.2988 11.7305C70.8887 11.7305 70.5859 11.8477 70.3906 12.082C70.2051 12.3066 70.1123 12.5996 70.1123 12.9609C70.1123 13.3223 70.21 13.7129 70.4053 14.1328C70.6006 14.5527 70.9863 15.0361 71.5625 15.583L74.5361 18.4395C75.1318 19.0059 75.6787 19.6064 76.1768 20.2412C76.6748 20.8662 77.0752 21.5986 77.3779 22.4385C77.6807 23.2686 77.832 24.2842 77.832 25.4854C77.832 27.9072 77.3828 29.8066 76.4844 31.1836C75.5957 32.5508 74.043 33.2344 71.8262 33.2344ZM81.7725 33V12.1699H78.7109V7.21875H89.9902V12.1699H86.9287V33H81.7725ZM91.4258 33V7.21875H99.3359C100.654 7.21875 101.65 7.52148 102.324 8.12695C102.998 8.72266 103.447 9.5625 103.672 10.6465C103.906 11.7207 104.023 12.9854 104.023 14.4404C104.023 15.8467 103.843 16.9697 103.481 17.8096C103.13 18.6494 102.461 19.2305 101.475 19.5527C102.285 19.7188 102.852 20.124 103.174 20.7686C103.506 21.4033 103.672 22.2285 103.672 23.2441V33H98.5889V22.9072C98.5889 22.1553 98.4326 21.6914 98.1201 21.5156C97.8174 21.3301 97.3242 21.2373 96.6406 21.2373V33H91.4258ZM96.6699 16.7695H97.915C98.6279 16.7695 98.9844 15.9932 98.9844 14.4404C98.9844 13.4346 98.9062 12.7754 98.75 12.4629C98.5938 12.1504 98.3008 11.9941 97.8711 11.9941H96.6699V16.7695ZM111.875 33.2344C109.814 33.2344 108.237 32.6143 107.144 31.374C106.06 30.124 105.518 28.3223 105.518 25.9688V13.7227C105.518 11.5156 106.055 9.84082 107.129 8.69824C108.213 7.55566 109.795 6.98438 111.875 6.98438C113.955 6.98438 115.532 7.55566 116.606 8.69824C117.69 9.84082 118.232 11.5156 118.232 13.7227V25.9688C118.232 28.3223 117.686 30.124 116.592 31.374C115.508 32.6143 113.936 33.2344 111.875 33.2344ZM111.919 28.4883C112.7 28.4883 113.091 27.7314 113.091 26.2178V13.6348C113.091 12.3652 112.71 11.7305 111.948 11.7305C111.089 11.7305 110.659 12.3799 110.659 13.6787V26.2471C110.659 27.0479 110.757 27.624 110.952 27.9756C111.147 28.3174 111.47 28.4883 111.919 28.4883Z" fill="white"/>
<defs>
<clipPath id="clip0_5_1013">
<rect width="39.9888" height="40" fill="white"/>
</clipPath>
</defs>
</svg>
