<svg width="104" height="40" viewBox="0 0 104 40" fill="none" xmlns="http://www.w3.org/2000/svg">
<g clip-path="url(#clip0_5_1032)">
<path fill-rule="evenodd" clip-rule="evenodd" d="M5.6831 36.9753L20.0284 29.0592L33.444 36.4633L33.444 14.0424L26.5835 10.257L21.6831 12.9613L28.6309 16.7947L28.6309 28.3986L22.0557 24.7709C20.7819 24.0681 19.3286 24.0366 18.0481 24.7438L4.81379 32.0458C4.82386 25.7634 4.82218 19.4809 4.81882 13.1985C10.9862 9.80203 18.3418 5.74488 24.9271 2.11116L22.0573 0.527038C20.7819 -0.175679 19.2732 -0.175679 17.9978 0.527038L1.83498 9.44467C0.656878 10.0948 -0.000977824 11.1504 -0.000977769 12.3892L-0.000976916 31.9077C-0.000976862 33.1464 0.656879 34.202 1.83498 34.8522L5.68142 36.9753L5.6831 36.9753ZM35.1876 36.4633L38.1631 34.8206C39.3412 34.1705 39.999 33.1149 39.999 31.8761L39.999 12.3576C39.999 11.1189 39.3412 10.0633 38.1631 9.41313L26.5818 3.02259C19.9059 6.70737 13.2317 10.3936 6.55073 14.0724L6.55073 29.2604L11.3689 26.6012L11.3689 16.8247L18.9762 12.6354C21.5119 11.2375 24.051 9.84257 26.5767 8.43263C29.4985 9.94318 32.3112 11.6024 35.1859 13.1775L35.1859 36.4633L35.1876 36.4633ZM7.33781 37.8883L10.2092 39.4724C11.4847 40.1766 12.9917 40.1751 14.2688 39.4724L20.0284 36.2951L25.7309 39.4409C27.0097 40.1466 28.5235 40.1421 29.7905 39.4409L32.6602 37.8567L20.0284 30.8866L7.33781 37.8883Z" fill="#45F882"/>
</g>
<path d="M55.4395 33L57.9297 7.21875H66.6748L69.1211 33H64.2432L63.877 28.8398H60.7715L60.4492 33H55.4395ZM61.1377 24.7236H63.4814L62.3535 11.6133H62.1191L61.1377 24.7236ZM70.7031 33V7.21875H75.8594V28.6055H81.1621V33H70.7031ZM82.627 33V7.21875H87.9297L90.3027 19.5674V7.21875H95.2832V33H90.2441L87.666 20.1094V33H82.627ZM97.334 33V7.21875H102.314V33H97.334Z" fill="white"/>
<defs>
<clipPath id="clip0_5_1032">
<rect width="44.7057" height="40" fill="white"/>
</clipPath>
</defs>
</svg>
